HIERARCHY
ROOT hip
{
  OFFSET 0 90.174 2.4664
  CHANNELS 6 Xposition Yposition Zposition Zrotation Xrotation Yrotation
  JOINT abdomen
  {
    OFFSET 0 -1.186 -1.5018
    CHANNELS 6 Xposition Yposition Zposition Zrotation Xrotation Yrotation
    JOINT abdomen2
    {
      OFFSET 0 9.964 0.2134
      CHANNELS 6 Xposition Yposition Zposition Zrotation Xrotation Yrotation
      JOINT chest
      {
        OFFSET 0 13.134 -3.2573
        CHANNELS 6 Xposition Yposition Zposition Zrotation Xrotation Yrotation
        JOINT neck
        {
          OFFSET 0 20.686 -1.6905
          CHANNELS 6 Xposition Yposition Zposition Zrotation Xrotation Yrotation
          JOINT head
          {
            OFFSET 0 7.238 -0.1237
            CHANNELS 6 Xposition Yposition Zposition Zrotation Xrotation Yrotation
            End Site
            {
              OFFSET 0 0 0
            }
          }
        }
        JOINT lCollar
        {
          OFFSET 1.7069 20.075 5.0056
          CHANNELS 6 Xposition Yposition Zposition Zrotation Xrotation Yrotation
          JOINT lShldr
          {
            OFFSET 13.6458 -0.047 -4.849
            CHANNELS 6 Xposition Yposition Zposition Zrotation Xrotation Yrotation
            JOINT lForeArm
            {
              OFFSET 28.3255 -0.9759 2.2888
              CHANNELS 6 Xposition Yposition Zposition Zrotation Xrotation Yrotation
              JOINT lHand
              {
                OFFSET 22.1583 -0.53 10.8316
                CHANNELS 6 Xposition Yposition Zposition Zrotation Xrotation Yrotation
                JOINT lThumb1
                {
                  OFFSET 0.786 0.112 2.5817
                  CHANNELS 6 Xposition Yposition Zposition Zrotation Xrotation Yrotation
                  JOINT lThumb2
                  {
                    OFFSET 0.3601 -0.878 4.2331
                    CHANNELS 6 Xposition Yposition Zposition Zrotation Xrotation Yrotation
                    JOINT lThumb2_End
                    {
                      OFFSET 1.8127 -1.216 2.2227
                      CHANNELS 6 Xposition Yposition Zposition Zrotation Xrotation Yrotation
                      End Site
                      {
                        OFFSET 0.0181 -0.0122 0.0222
                      }
                    }
                  }
                }
                JOINT lCarpal1
                {
                  OFFSET 0.9571 1.114 1.7695
                  CHANNELS 6 Xposition Yposition Zposition Zrotation Xrotation Yrotation
                  JOINT lIndex1
                  {
                    OFFSET 4.1246 0.487 4.1451
                    CHANNELS 6 Xposition Yposition Zposition Zrotation Xrotation Yrotation
                    JOINT lIndex2
                    {
                      OFFSET 3.4052 -1.454 2.7682
                      CHANNELS 6 Xposition Yposition Zposition Zrotation Xrotation Yrotation
                      JOINT lIndex2_End
                      {
                        OFFSET 1.4531 -1.795 1.2713
                        CHANNELS 6 Xposition Yposition Zposition Zrotation Xrotation Yrotation
                        End Site
                        {
                          OFFSET 0.0145 -0.0179 0.0127
                        }
                      }
                    }
                  }
                  JOINT lMid1
                  {
                    OFFSET 5.6954 0.21 2.1184
                    CHANNELS 6 Xposition Yposition Zposition Zrotation Xrotation Yrotation
                    JOINT lMid2
                    {
                      OFFSET 3.9766 -1.54 2.3863
                      CHANNELS 6 Xposition Yposition Zposition Zrotation Xrotation Yrotation
                      JOINT lMid2_End
                      {
                        OFFSET 1.4042 -1.926 1.125
                        CHANNELS 6 Xposition Yposition Zposition Zrotation Xrotation Yrotation
                        End Site
                        {
                          OFFSET 0.014 -0.0193 0.0113
                        }
                      }
                    }
                  }
                }
                JOINT lCarpal2
                {
                  OFFSET 2.0956 0.66 -0.3894
                  CHANNELS 6 Xposition Yposition Zposition Zrotation Xrotation Yrotation
                  JOINT lRing1
                  {
                    OFFSET 5.0395 -0.09 2.4971
                    CHANNELS 6 Xposition Yposition Zposition Zrotation Xrotation Yrotation
                    JOINT lRing2
                    {
                      OFFSET 3.7921 -1.552 1.4806
                      CHANNELS 6 Xposition Yposition Zposition Zrotation Xrotation Yrotation
                      JOINT lRing2_End
                      {
                        OFFSET 1.4655 -1.808 0.9609
                        CHANNELS 6 Xposition Yposition Zposition Zrotation Xrotation Yrotation
                        End Site
                        {
                          OFFSET 0.0147 -0.0181 0.0096
                        }
                      }
                    }
                  }
                  JOINT lPinky1
                  {
                    OFFSET 4.9141 -1.269 0.3591
                    CHANNELS 6 Xposition Yposition Zposition Zrotation Xrotation Yrotation
                    JOINT lPinky2
                    {
                      OFFSET 3.1477 -1.685 0.8462
                      CHANNELS 6 Xposition Yposition Zposition Zrotation Xrotation Yrotation
                      JOINT lPinky2_End
                      {
                        OFFSET 0.8055 -1.585 0.7955
                        CHANNELS 6 Xposition Yposition Zposition Zrotation Xrotation Yrotation
                        End Site
                        {
                          OFFSET 0.0081 -0.0158 0.008
                        }
                      }
                    }
                  }
                }
              }
            }
          }
        }
        JOINT rCollar
        {
          OFFSET -1.7069 20.075 5.0056
          CHANNELS 6 Xposition Yposition Zposition Zrotation Xrotation Yrotation
          JOINT rShldr
          {
            OFFSET -13.6458 -0.047 -4.849
            CHANNELS 6 Xposition Yposition Zposition Zrotation Xrotation Yrotation
            JOINT rForeArm
            {
              OFFSET -28.3255 -0.9759 2.2888
              CHANNELS 6 Xposition Yposition Zposition Zrotation Xrotation Yrotation
              JOINT rHand
              {
                OFFSET -22.1583 -0.53 10.8316
                CHANNELS 6 Xposition Yposition Zposition Zrotation Xrotation Yrotation
                JOINT rThumb1
                {
                  OFFSET -0.786 0.112 2.5817
                  CHANNELS 6 Xposition Yposition Zposition Zrotation Xrotation Yrotation
                  JOINT rThumb2
                  {
                    OFFSET -0.3601 -0.878 4.2331
                    CHANNELS 6 Xposition Yposition Zposition Zrotation Xrotation Yrotation
                    JOINT rThumb2_End
                    {
                      OFFSET -1.8127 -1.216 2.2227
                      CHANNELS 6 Xposition Yposition Zposition Zrotation Xrotation Yrotation
                      End Site
                      {
                        OFFSET -0.0181 -0.0122 0.0222
                      }
                    }
                  }
                }
                JOINT rCarpal1
                {
                  OFFSET -0.9571 1.114 1.7695
                  CHANNELS 6 Xposition Yposition Zposition Zrotation Xrotation Yrotation
                  JOINT rIndex1
                  {
                    OFFSET -4.1246 0.487 4.1451
                    CHANNELS 6 Xposition Yposition Zposition Zrotation Xrotation Yrotation
                    JOINT rIndex2
                    {
                      OFFSET -3.4052 -1.454 2.7682
                      CHANNELS 6 Xposition Yposition Zposition Zrotation Xrotation Yrotation
                      JOINT rIndex2_End
                      {
                        OFFSET -1.4531 -1.795 1.2713
                        CHANNELS 6 Xposition Yposition Zposition Zrotation Xrotation Yrotation
                        End Site
                        {
                          OFFSET -0.0145 -0.018 0.0127
                        }
                      }
                    }
                  }
                  JOINT rMid1
                  {
                    OFFSET -5.6954 0.21 2.1184
                    CHANNELS 6 Xposition Yposition Zposition Zrotation Xrotation Yrotation
                    JOINT rMid2
                    {
                      OFFSET -3.9766 -1.54 2.3863
                      CHANNELS 6 Xposition Yposition Zposition Zrotation Xrotation Yrotation
                      JOINT rMid2_End
                      {
                        OFFSET -1.4042 -1.926 1.125
                        CHANNELS 6 Xposition Yposition Zposition Zrotation Xrotation Yrotation
                        End Site
                        {
                          OFFSET -0.014 -0.0193 0.0113
                        }
                      }
                    }
                  }
                }
                JOINT rCarpal2
                {
                  OFFSET -2.0956 0.66 -0.3894
                  CHANNELS 6 Xposition Yposition Zposition Zrotation Xrotation Yrotation
                  JOINT rRing1
                  {
                    OFFSET -5.0395 -0.09 2.4971
                    CHANNELS 6 Xposition Yposition Zposition Zrotation Xrotation Yrotation
                    JOINT rRing2
                    {
                      OFFSET -3.7921 -1.552 1.4806
                      CHANNELS 6 Xposition Yposition Zposition Zrotation Xrotation Yrotation
                      JOINT rRing2_End
                      {
                        OFFSET -1.4655 -1.808 0.9609
                        CHANNELS 6 Xposition Yposition Zposition Zrotation Xrotation Yrotation
                        End Site
                        {
                          OFFSET -0.0147 -0.0181 0.0096
                        }
                      }
                    }
                  }
                  JOINT rPinky1
                  {
                    OFFSET -4.9141 -1.269 0.3592
                    CHANNELS 6 Xposition Yposition Zposition Zrotation Xrotation Yrotation
                    JOINT rPinky2
                    {
                      OFFSET -3.1477 -1.685 0.8462
                      CHANNELS 6 Xposition Yposition Zposition Zrotation Xrotation Yrotation
                      JOINT rPinky2_End
                      {
                        OFFSET -0.8055 -1.585 0.7955
                        CHANNELS 6 Xposition Yposition Zposition Zrotation Xrotation Yrotation
                        End Site
                        {
                          OFFSET -0.0081 -0.0158 0.008
                        }
                      }
                    }
                  }
                }
              }
            }
          }
        }
      }
    }
  }
  JOINT lThigh
  {
    OFFSET 8.367 -8.2066 0.5982
    CHANNELS 6 Xposition Yposition Zposition Zrotation Xrotation Yrotation
    JOINT lShin
    {
      OFFSET 2.1923 -43.463 -0.4932
      CHANNELS 6 Xposition Yposition Zposition Zrotation Xrotation Yrotation
      JOINT lFoot
      {
        OFFSET 0.7333 -45.8593 -2.6451
        CHANNELS 6 Xposition Yposition Zposition Zrotation Xrotation Yrotation
        End Site
        {
          OFFSET 2.6618 -4.2699 12.3931
        }
      }
    }
  }
  JOINT rThigh
  {
    OFFSET -8.367 -8.2066 0.5982
    CHANNELS 6 Xposition Yposition Zposition Zrotation Xrotation Yrotation
    JOINT rShin
    {
      OFFSET -2.1923 -43.463 -0.4931
      CHANNELS 6 Xposition Yposition Zposition Zrotation Xrotation Yrotation
      JOINT rFoot
      {
        OFFSET -0.7333 -45.8593 -2.6451
        CHANNELS 6 Xposition Yposition Zposition Zrotation Xrotation Yrotation
        End Site
        {
          OFFSET -2.6618 -4.2699 12.3931
        }
      }
    }
  }
}
MOTION
Frames:	4
Frame Time:	0.0333333
0 90.174 2.4664 0 0 -0 0 -1.186 -1.5018 0 0 -0 0 9.964 0.2134 0 0 -0 0 13.134 -3.2573 0 0 -0 0 20.686 -1.6905 0 0 -0 0 7.238 -0.1237 0 0 -0 1.7069 20.075 5.0056 0 0 -0 13.6458 -0.047 -4.849 1.66051 0.0835086 5.75766 28.3255 -0.9759 2.2888 -0.0175111 0.895433 15.7816 22.1583 -0.53 10.8316 7.95139e-016 -1.98785e-016 -0 0.786 0.112 2.5817 5.46658e-016 -3.97569e-016 -0 0.3601 -0.878 4.2331 5.96354e-016 0 -0 1.8127 -1.216 2.2227 3.97569e-016 1.98785e-016 9.54166e-015 0.9571 1.114 1.7695 1.49089e-016 -3.97569e-016 -0 4.1246 0.487 4.1451 6.4605e-016 0 3.18055e-015 3.4052 -1.454 2.7682 5.96354e-016 0 3.18055e-015 1.4531 -1.795 1.2713 8.94531e-016 -1.98785e-016 6.36111e-015 5.6954 0.21 2.1184 6.4605e-016 0 3.18055e-015 3.9766 -1.54 2.3863 5.96354e-016 0 3.18055e-015 1.4042 -1.926 1.125 8.94531e-016 -1.98785e-016 6.36111e-015 2.0956 0.66 -0.3894 1.49089e-016 -3.97569e-016 -0 5.0395 -0.09 2.4971 6.4605e-016 0 3.18055e-015 3.7921 -1.552 1.4806 5.96354e-016 0 3.18055e-015 1.4655 -1.808 0.9609 8.94531e-016 -1.98785e-016 6.36111e-015 4.9141 -1.269 0.3591 6.4605e-016 0 3.18055e-015 3.1477 -1.685 0.8462 5.96354e-016 0 3.18055e-015 0.8055 -1.585 0.7955 8.94531e-016 -1.98785e-016 6.36111e-015 -1.7069 20.075 5.0056 0 0 -0 -13.6458 -0.047 -4.849 -1.4496 0.0636048 -5.0245 -28.3255 -0.9759 2.2888 -1.74811 1.20616 -16.8394 -22.1583 -0.53 10.8316 -1.19271e-015 1.98785e-016 -3.18055e-015 -0.786 0.112 2.5817 -3.97569e-016 1.98785e-016 -3.18055e-015 -0.3601 -0.878 4.2331 -2.98177e-016 1.98785e-016 -3.18055e-015 -1.8127 -1.216 2.2227 -2.98177e-016 3.97569e-016 -0 -0.9571 1.114 1.7695 4.96962e-016 0 -6.36111e-015 -4.1246 0.487 4.1451 -9.93923e-017 3.97569e-016 -0 -3.4052 -1.454 2.7682 -8.94531e-016 5.96354e-016 -0 -1.4531 -1.795 1.2713 -3.97569e-016 3.97569e-016 -0 -5.6954 0.21 2.1184 -9.93923e-017 3.97569e-016 -0 -3.9766 -1.54 2.3863 -8.94531e-016 5.96354e-016 -0 -1.4042 -1.926 1.125 -3.97569e-016 3.97569e-016 -0 -2.0956 0.66 -0.3894 4.96962e-016 0 -6.36111e-015 -5.0395 -0.09 2.4971 -9.93923e-017 3.97569e-016 -0 -3.7921 -1.552 1.4806 -8.94531e-016 5.96354e-016 -0 -1.4655 -1.808 0.9609 -3.97569e-016 3.97569e-016 -0 -4.9141 -1.269 0.3592 -9.93923e-017 3.97569e-016 -0 -3.1477 -1.685 0.8462 -8.94531e-016 5.96354e-016 -0 -0.8055 -1.585 0.7955 -3.97569e-016 3.97569e-016 -0 8.367 -8.2066 0.5982 -4.66115 -1.03232 0.120763 2.1923 -43.463 -0.4932 0.00990601 1.55097 0.177175 0.7333 -45.8593 -2.6451 4.65196 -0.54114 -0.255042 -8.367 -8.2066 0.5982 4.66115 -1.03222 -0.120763 -2.1923 -43.463 -0.4931 -0.00990459 1.5509 -0.177176 -0.7333 -45.8593 -2.6451 -4.65196 -0.541171 0.255041 
10.1035 83.2782 -29.577 -3.34276 -2.15261 41.7217 0 -1.186 -1.5018 1.10466 1.0305 -0.0594395 0 9.964 0.2134 2.2109 2.05968 -0.1386 -3.55271e-015 13.134 -3.2573 2.2109 2.05968 -0.138614 0 20.686 -1.6905 0.70411 8.06184 -13.8605 0 7.238 -0.1237 1.84945 1.4983 -0.131835 1.7069 20.075 5.0056 1.15037e-005 1.17752e-005 -5.98163e-006 13.6458 -0.047 -4.849 -33.351 0.254897 -12.7749 28.3255 -0.9759 2.2888 -7.03367 -3.37647 -32.4333 22.1583 -0.53 10.8316 8.64616 -3.51559 -4.02933 0.786 0.112 2.5817 -1.55421e-006 -3.28605e-006 -2.32747e-007 0.3601 -0.878 4.2331 3.40352e-007 2.92844e-006 2.26941e-006 1.8127 -1.216 2.2227 -1.55421e-006 -3.28605e-006 -2.32747e-007 0.9571 1.114 1.7695 7.95139e-016 -3.18055e-015 -1.59028e-015 4.1246 0.487 4.1451 -1.55421e-006 -3.28605e-006 -2.32747e-007 3.4052 -1.454 2.7682 3.40352e-007 2.92844e-006 2.26941e-006 1.4531 -1.795 1.2713 -1.55421e-006 -3.28605e-006 -2.32747e-007 5.6954 0.21 2.1184 -1.55421e-006 -3.28605e-006 -2.32747e-007 3.9766 -1.54 2.3863 3.40352e-007 2.92844e-006 2.26941e-006 1.4042 -1.926 1.125 -1.55421e-006 -3.28605e-006 -2.32747e-007 2.0956 0.66 -0.3894 7.95139e-016 -3.18055e-015 -1.59028e-015 5.0395 -0.09 2.4971 -1.55421e-006 -3.28605e-006 -2.32747e-007 3.7921 -1.552 1.4806 3.40352e-007 2.92844e-006 2.26941e-006 1.4655 -1.808 0.9609 -1.55421e-006 -3.28605e-006 -2.32747e-007 4.9141 -1.269 0.3591 -1.55421e-006 -3.28605e-006 -2.32747e-007 3.1477 -1.685 0.8462 3.40352e-007 2.92844e-006 2.26941e-006 0.8055 -1.585 0.7955 -1.55421e-006 -3.28605e-006 -2.32747e-007 -1.7069 20.075 5.0056 1.15037e-005 1.17752e-005 -5.98163e-006 -13.6458 -0.047 -4.849 27.0923 -0.28034 8.61235 -28.3255 -0.9759 2.2888 -1.78438 -0.97154 20.5332 -22.1583 -0.53 10.8316 -5.1735 -1.93741 -2.08247 -0.786 0.112 2.5817 -1.13761e-007 -1.75362e-007 4.28252e-008 -0.3601 -0.878 4.2331 7.95139e-015 5.56597e-015 -3.18055e-015 -1.8127 -1.216 2.2227 -1.13761e-007 -1.75362e-007 4.28252e-008 -0.9571 1.114 1.7695 -0 -1.59028e-015 -0 -4.1246 0.487 4.1451 -1.1376e-007 -1.75362e-007 4.28252e-008 -3.4052 -1.454 2.7682 9.54166e-015 6.36111e-015 -0 -1.4531 -1.795 1.2713 -1.13761e-007 -1.75362e-007 4.28252e-008 -5.6954 0.21 2.1184 -1.1376e-007 -1.75362e-007 4.28252e-008 -3.9766 -1.54 2.3863 9.54166e-015 6.36111e-015 -0 -1.4042 -1.926 1.125 -1.13761e-007 -1.75362e-007 4.28252e-008 -2.0956 0.66 -0.3894 -0 -1.59028e-015 -0 -5.0395 -0.09 2.4971 -1.1376e-007 -1.75362e-007 4.28252e-008 -3.7921 -1.552 1.4806 9.54166e-015 6.36111e-015 -0 -1.4655 -1.808 0.9609 -1.13761e-007 -1.75362e-007 4.28252e-008 -4.9141 -1.269 0.3592 -1.1376e-007 -1.75362e-007 4.28252e-008 -3.1477 -1.685 0.8462 9.54166e-015 6.36111e-015 -0 -0.8055 -1.585 0.7955 -1.13761e-007 -1.75362e-007 4.28252e-008 8.367 -8.2066 0.5982 -7.14451 -4.83607 -0.264688 2.1923 -43.463 -0.4932 0.247214 12.377 -3.89955 0.7333 -45.8593 -2.6451 3.48095 9.89552 -4.38352 -8.367 -8.2066 0.5982 1.21435 -18.3777 -8.58328 -2.1923 -43.463 -0.4931 0.028471 28.3193 -1.26457 -0.7333 -45.8593 -2.6451 -4.65642 -0.0577718 5.8179 
18.8127 76.2296 -61.8947 -4.79427 -0.664484 83.4045 -7.10543e-015 -1.186 -1.5018 2.20943 2.07174 -0.0772994 0 9.964 0.2134 4.42599 4.13896 -0.2347 0 13.134 -3.2573 4.426 4.13896 -0.23474 0 20.686 -1.6905 5.2672 14.6874 -28.4514 7.10543e-015 7.238 -0.1237 3.7058 2.99656 -0.263944 1.7069 20.075 5.0056 -2.36396e-005 -2.07241e-005 3.82698e-006 13.6458 -0.047 -4.849 -68.1061 0.250183 -31.3054 28.3255 -0.9759 2.2888 -16.9396 1.12028 -80.3668 22.1583 -0.53 10.8316 17.3541 -6.93139 -7.5504 0.786 0.112 2.5817 7.95139e-016 -7.95139e-016 2.73329e-015 0.3601 -0.878 4.2331 -2.5104e-006 -3.84167e-007 2.27414e-006 1.8127 -1.216 2.2227 -0 0 1.98785e-016 0.9571 1.114 1.7695 3.72423e-032 -7.95139e-016 2.68359e-015 4.1246 0.487 4.1451 -7.95139e-016 0 7.55382e-015 3.4052 -1.454 2.7682 -2.5104e-006 -3.84167e-007 2.27414e-006 1.4531 -1.795 1.2713 -4.96564e-032 1.59028e-015 1.78906e-015 5.6954 0.21 2.1184 -7.95139e-016 0 7.55382e-015 3.9766 -1.54 2.3863 -2.5104e-006 -3.84167e-007 2.27414e-006 1.4042 -1.926 1.125 -4.96564e-032 1.59028e-015 1.78906e-015 2.0956 0.66 -0.3894 3.72423e-032 -7.95139e-016 2.68359e-015 5.0395 -0.09 2.4971 -7.95139e-016 0 7.55382e-015 3.7921 -1.552 1.4806 -2.5104e-006 -3.84167e-007 2.27414e-006 1.4655 -1.808 0.9609 -4.96564e-032 1.59028e-015 1.78906e-015 4.9141 -1.269 0.3591 -7.95139e-016 0 7.55382e-015 3.1477 -1.685 0.8462 -2.5104e-006 -3.84167e-007 2.27414e-006 0.8055 -1.585 0.7955 -4.96564e-032 1.59028e-015 1.78906e-015 -1.7069 20.075 5.0056 -2.36396e-005 -2.07241e-005 3.82698e-006 -13.6458 -0.047 -4.849 55.7145 -0.608443 22.2499 -28.3255 -0.9759 2.2888 -0.490077 -2.7238 57.9474 -22.1583 -0.53 10.8316 -10.3587 -3.84541 -4.35062 -0.786 0.112 2.5817 -3.37852e-007 -1.19215e-007 2.31435e-007 -0.3601 -0.878 4.2331 1.74111e-006 1.86689e-006 3.44619e-006 -1.8127 -1.216 2.2227 -3.37852e-007 -1.19215e-007 2.31435e-007 -0.9571 1.114 1.7695 3.18055e-015 -4.77083e-015 -2.38542e-015 -4.1246 0.487 4.1451 -3.37852e-007 -1.19215e-007 2.31435e-007 -3.4052 -1.454 2.7682 1.74111e-006 1.86689e-006 3.44619e-006 -1.4531 -1.795 1.2713 -3.37852e-007 -1.19215e-007 2.31435e-007 -5.6954 0.21 2.1184 -3.37852e-007 -1.19215e-007 2.31435e-007 -3.9766 -1.54 2.3863 1.74111e-006 1.86689e-006 3.44619e-006 -1.4042 -1.926 1.125 -3.37852e-007 -1.19215e-007 2.31435e-007 -2.0956 0.66 -0.3894 3.18055e-015 -4.77083e-015 -2.38542e-015 -5.0395 -0.09 2.4971 -3.37852e-007 -1.19215e-007 2.31435e-007 -3.7921 -1.552 1.4806 1.74111e-006 1.86689e-006 3.44619e-006 -1.4655 -1.808 0.9609 -3.37852e-007 -1.19215e-007 2.31435e-007 -4.9141 -1.269 0.3592 -3.37852e-007 -1.19215e-007 2.31435e-007 -3.1477 -1.685 0.8462 1.74111e-006 1.86689e-006 3.44619e-006 -0.8055 -1.585 0.7955 -3.37852e-007 -1.19215e-007 2.31435e-007 8.367 -8.2066 0.5982 -9.89879 -9.92696 -0.728501 2.1923 -43.463 -0.4932 2.78882 25.411 -8.62313 0.7333 -45.8593 -2.6451 3.84198 19.0154 -8.84597 -8.367 -8.2066 0.5982 -7.45369 -33.8436 -19.5536 -2.1923 -43.463 -0.4931 -0.233756 53.2599 -2.19926 -0.7333 -45.8593 -2.6451 -4.64883 1.41198 11.395 
24.3131 71.2815 -84.0972 -7.00927 2.97739 112.364 -1.42109e-014 -1.186 -1.5018 2.98183 2.80615 -0.0650786 -1.42109e-014 9.964 0.2134 5.9776 5.60509 -0.27688 0 13.134 -3.2573 5.97761 5.60508 -0.276904 0 20.686 -1.6905 10.5024 17.7152 -39.2311 1.42109e-014 7.238 -0.1237 5.00896 3.98125 -0.351074 1.7069 20.075 5.0056 3.83622e-005 3.29898e-005 -1.69682e-005 13.6458 -0.047 -4.849 -92.3414 0.0683246 -44.2728 28.3255 -0.9759 2.2888 -19.6995 9.12301 -113.308 22.1583 -0.53 10.8316 23.5175 -9.22142 -9.7172 0.786 0.112 2.5817 6.36111e-015 1.13059e-014 2.38542e-015 0.3601 -0.878 4.2331 6.36111e-015 1.38652e-014 6.79595e-015 1.8127 -1.216 2.2227 3.18055e-015 9.88954e-015 -2.11209e-015 0.9571 1.114 1.7695 5.95813e-032 -1.41634e-015 2.41026e-015 4.1246 0.487 4.1451 -2.46528e-030 1.61264e-014 8.75895e-015 3.4052 -1.454 2.7682 3.18055e-015 1.39149e-014 3.62782e-015 1.4531 -1.795 1.2713 6.36111e-015 1.16786e-014 -1.46604e-015 5.6954 0.21 2.1184 -2.46528e-030 1.61264e-014 8.75895e-015 3.9766 -1.54 2.3863 3.18055e-015 1.39149e-014 3.62782e-015 1.4042 -1.926 1.125 6.36111e-015 1.16786e-014 -1.46604e-015 2.0956 0.66 -0.3894 5.95813e-032 -1.41634e-015 2.41026e-015 5.0395 -0.09 2.4971 -2.46528e-030 1.61264e-014 8.75895e-015 3.7921 -1.552 1.4806 3.18055e-015 1.39149e-014 3.62782e-015 1.4655 -1.808 0.9609 6.36111e-015 1.16786e-014 -1.46604e-015 4.9141 -1.269 0.3591 -2.46528e-030 1.61264e-014 8.75895e-015 3.1477 -1.685 0.8462 3.18055e-015 1.39149e-014 3.62782e-015 0.8055 -1.585 0.7955 6.36111e-015 1.16786e-014 -1.46604e-015 -1.7069 20.075 5.0056 3.83622e-005 3.29898e-005 -1.69682e-005 -13.6458 -0.047 -4.849 75.8013 -0.823647 31.9647 -28.3255 -0.9759 2.2888 0.936621 -3.29293 84.1068 -22.1583 -0.53 10.8316 -13.9462 -5.19278 -6.03651 -0.786 0.112 2.5817 -7.95139e-016 -6.36111e-015 -1.98785e-016 -0.3601 -0.878 4.2331 -1.59028e-015 -6.36111e-015 -3.97569e-016 -1.8127 -1.216 2.2227 -2.38542e-015 -6.36111e-015 -1.98785e-016 -0.9571 1.114 1.7695 7.95139e-016 -4.77083e-015 -0 -4.1246 0.487 4.1451 2.75869e-032 -7.95139e-015 1.98785e-016 -3.4052 -1.454 2.7682 -1.59028e-015 -6.36111e-015 -0 -1.4531 -1.795 1.2713 -2.38542e-015 -3.18055e-015 -1.98785e-016 -5.6954 0.21 2.1184 2.75869e-032 -7.95139e-015 1.98785e-016 -3.9766 -1.54 2.3863 -1.59028e-015 -6.36111e-015 -0 -1.4042 -1.926 1.125 -2.38542e-015 -3.18055e-015 -1.98785e-016 -2.0956 0.66 -0.3894 7.95139e-016 -4.77083e-015 -0 -5.0395 -0.09 2.4971 2.75869e-032 -7.95139e-015 1.98785e-016 -3.7921 -1.552 1.4806 -1.59028e-015 -6.36111e-015 -0 -1.4655 -1.808 0.9609 -2.38542e-015 -3.18055e-015 -1.98785e-016 -4.9141 -1.269 0.3592 2.75869e-032 -7.95139e-015 1.98785e-016 -3.1477 -1.685 0.8462 -1.59028e-015 -6.36111e-015 -0 -0.8055 -1.585 0.7955 -2.38542e-015 -3.18055e-015 -1.98785e-016 8.367 -8.2066 0.5982 -12.1946 -13.8852 -1.11801 2.1923 -43.463 -0.4932 6.68916 35.0928 -13.0261 0.7333 -45.8593 -2.6451 5.10888 24.7171 -12.3937 -8.367 -8.2066 0.5982 -18.0785 -43.2436 -30.4723 -2.1923 -43.463 -0.4931 -0.406476 70.7007 -1.61374 -0.7333 -45.8593 -2.6451 -4.70598 2.63836 13.9684 
